<svg width="101" height="101" viewBox="0 0 101 101" fill="none" xmlns="http://www.w3.org/2000/svg">
<path d="M51.451 9.14398C28.389 9.14398 9.62598 27.905 9.62598 50.965C9.62598 74.03 28.389 92.796 51.451 92.796C74.513 92.796 93.276 74.03 93.276 50.965C93.276 27.905 74.514 9.14398 51.451 9.14398ZM51.451 89.796C30.043 89.796 12.626 72.376 12.626 50.965C12.626 29.559 30.043 12.144 51.451 12.144C72.859 12.144 90.276 29.559 90.276 50.965C90.276 72.376 72.859 89.796 51.451 89.796Z" fill="white"/>
<path d="M35.4941 43.169C30.8721 43.169 26.8261 46.116 25.4241 50.503C25.1721 51.293 25.6071 52.136 26.3961 52.388C27.1861 52.642 28.0291 52.205 28.2811 51.415C29.2841 48.277 32.1821 46.168 35.4931 46.168C38.8051 46.168 41.7021 48.28 42.7041 51.423C42.9071 52.062 43.4971 52.468 44.1331 52.468C44.2841 52.468 44.4381 52.446 44.5891 52.397C45.3781 52.146 45.8141 51.302 45.5631 50.513C44.1641 46.121 40.1171 43.169 35.4941 43.169Z" fill="white"/>
<path d="M67.4079 43.169C62.7879 43.169 58.7399 46.116 57.3379 50.503C57.0859 51.292 57.5209 52.137 58.3099 52.389C59.1039 52.643 59.9439 52.206 60.1959 51.417C61.1999 48.278 64.0979 46.169 67.4089 46.169C70.7129 46.169 73.6109 48.282 74.6219 51.428C74.8259 52.064 75.4149 52.469 76.0499 52.469C76.2009 52.469 76.3569 52.447 76.5089 52.397C77.2969 52.144 77.7319 51.299 77.4779 50.511C76.0659 46.119 72.0209 43.169 67.4079 43.169Z" fill="white"/>
</svg>
