<svg width="101" height="101" viewBox="0 0 101 101" fill="none" xmlns="http://www.w3.org/2000/svg">
<path d="M59.0701 54.405C38.9781 54.405 22.6321 70.755 22.6321 90.85C22.6321 91.678 23.3031 92.35 24.1321 92.35H94.0101C94.8381 92.35 95.5101 91.678 95.5101 90.85C95.5101 70.754 79.1631 54.405 59.0701 54.405ZM25.6661 89.35C26.4541 71.602 41.1361 57.405 59.0701 57.405C77.0061 57.405 91.6881 71.602 92.4761 89.35H25.6661Z" fill="white"/>
<path d="M58.4649 50.567C70.0219 50.567 79.4239 41.165 79.4239 29.608C79.4239 18.051 70.0209 8.64905 58.4649 8.64905C46.9089 8.64905 37.5059 18.051 37.5059 29.608C37.5059 41.165 46.9079 50.567 58.4649 50.567ZM58.4649 11.649C68.3669 11.649 76.4239 19.705 76.4239 29.608C76.4239 39.511 68.3669 47.567 58.4649 47.567C48.5619 47.567 40.5059 39.511 40.5059 29.608C40.5059 19.705 48.5619 11.649 58.4649 11.649Z" fill="white"/>
<path d="M47.3089 30.0711C47.7509 28.6841 49.0319 27.7531 50.4949 27.7531C51.9529 27.7531 53.2349 28.6871 53.6859 30.0781C53.8919 30.7121 54.4799 31.1161 55.1129 31.1161C55.2659 31.1161 55.4229 31.0921 55.5759 31.0421C56.3639 30.7861 56.7959 29.9401 56.5399 29.1521C55.6859 26.5211 53.2569 24.7531 50.4949 24.7531C47.7209 24.7531 45.2909 26.5241 44.4509 29.1591C44.1999 29.9491 44.6349 30.7921 45.4239 31.0441C46.2109 31.2961 47.0569 30.8601 47.3089 30.0711Z" fill="white"/>
<path d="M61.283 31.044C62.074 31.295 62.916 30.859 63.168 30.07C63.609 28.684 64.89 27.753 66.356 27.753C67.813 27.753 69.093 28.687 69.544 30.077C69.749 30.712 70.337 31.116 70.971 31.116C71.123 31.116 71.28 31.092 71.433 31.043C72.221 30.788 72.654 29.942 72.398 29.154C71.547 26.522 69.119 24.754 66.357 24.754C63.58 24.754 61.15 26.525 60.31 29.161C60.058 29.949 60.494 30.793 61.283 31.044Z" fill="white"/>
<path d="M23.733 33.499L23.75 37.641C23.753 38.467 24.424 39.135 25.25 39.135C25.252 39.135 25.254 39.135 25.256 39.135C26.084 39.132 26.753 38.457 26.75 37.629L26.733 33.493C26.733 28.005 21.918 23.369 16.219 23.369C15.819 23.369 15.435 23.529 15.153 23.814C14.871 24.099 14.715 24.484 14.719 24.884L14.943 47.003C13.88 46.304 12.61 45.895 11.245 45.895C7.52097 45.895 4.49097 48.924 4.49097 52.647C4.49097 56.37 7.52097 59.399 11.245 59.399C14.969 59.399 17.999 56.37 17.999 52.647V52.644C17.999 52.64 18 52.636 18 52.631L17.736 26.528C21.068 27.235 23.733 30.188 23.733 33.499ZM11.245 56.399C9.17497 56.399 7.49097 54.715 7.49097 52.647C7.49097 50.578 9.17497 48.895 11.245 48.895C13.315 48.895 14.999 50.578 14.999 52.647C14.999 54.715 13.315 56.399 11.245 56.399Z" fill="white"/>
</svg>
