<svg width="101" height="101" viewBox="0 0 101 101" fill="none" xmlns="http://www.w3.org/2000/svg">
<path d="M85.9131 8.64101C85.9131 8.17201 85.6931 7.73001 85.3201 7.44701C84.9471 7.16301 84.4621 7.06901 84.0101 7.19701L26.7251 23.143C26.0761 23.323 25.6271 23.914 25.6271 24.588V73.579C23.3751 70.978 20.0581 69.323 16.3551 69.323C9.59209 69.323 4.09009 74.827 4.09009 81.592C4.09009 88.355 9.59209 93.857 16.3551 93.857C23.1221 93.857 28.6271 88.355 28.6271 81.592V37.778L82.9131 23.382V57.508C80.6611 54.907 77.3431 53.251 73.6401 53.251C66.8741 53.251 61.3691 58.754 61.3691 65.518C61.3691 72.283 66.8741 77.786 73.6401 77.786C80.3911 77.786 85.8851 72.307 85.9091 65.563C85.9091 65.549 85.9131 65.535 85.9131 65.521V8.64101ZM16.3551 90.857C11.2461 90.857 7.09009 86.701 7.09009 81.592C7.09009 76.482 11.2461 72.323 16.3551 72.323C21.4681 72.323 25.6271 76.481 25.6271 81.592C25.6271 86.7 21.4681 90.857 16.3551 90.857ZM28.6271 34.674V25.727L82.9131 10.615V20.277L28.6271 34.674ZM73.6401 74.784C68.5291 74.784 64.3691 70.627 64.3691 65.516C64.3691 60.407 68.5281 56.249 73.6401 56.249C78.7521 56.249 82.9111 60.406 82.9111 65.516C82.9111 70.627 78.7521 74.784 73.6401 74.784Z" fill="white"/>
</svg>
