<svg width="110" height="110" viewBox="0 0 110 110" fill="none" xmlns="http://www.w3.org/2000/svg">
<rect width="110" height="110" rx="15" fill="#121212"/>
<path d="M67.657 84.9972C64.5054 85.0525 61.3991 84.2781 58.6812 82.7598C56.1073 81.3082 53.9983 79.2167 52.5812 76.7104C51.1126 74.1142 50.3629 71.2054 50.4026 68.2578V40.4968C50.4185 39.2888 50.087 38.0996 49.444 37.0577C48.8175 36.0498 47.9332 35.2088 46.8732 34.6131C45.8069 34.0073 44.586 33.692 43.3439 33.7015C42.115 33.6877 40.9068 34.0036 39.8582 34.6131C38.8157 35.2161 37.9472 36.0562 37.331 37.0577C36.6859 38.0988 36.3542 39.2885 36.3724 40.4968V84.0028H26.0023V41.7398C25.9525 38.7778 26.7026 35.8533 28.1809 33.2458C29.6071 30.7565 31.7149 28.6805 34.281 27.2378C37.068 25.77 40.2016 25 43.3875 25C46.5734 25 49.707 25.77 52.494 27.2378C55.059 28.6818 57.1665 30.7575 58.5941 33.2458C60.0704 35.854 60.8203 38.7781 60.7727 41.7398V69.5008C60.7545 70.709 61.0861 71.8988 61.7312 72.9398C62.3475 73.9413 63.2159 74.7814 64.2584 75.3845C65.2787 75.986 66.4566 76.3019 67.657 76.296C68.8859 76.3099 70.0941 75.9939 71.1428 75.3845C72.1783 74.7868 73.0339 73.9446 73.6263 72.9398C74.2439 71.8899 74.5595 70.7037 74.5414 69.5008V25.9947H84.9986V68.2578C85.0369 71.2053 84.2873 74.1138 82.82 76.7104C81.4091 79.2075 79.317 81.2971 76.7635 82.7598C74.1754 84.2514 71.1399 84.9972 67.657 84.9972Z" fill="white"/>
</svg>
