<svg width="101" height="102" viewBox="0 0 101 102" fill="none" xmlns="http://www.w3.org/2000/svg">
<path d="M93.424 44.705L79.714 15.521C79.621 15.316 79.467 15.134 79.302 14.994C79.039 14.763 78.704 14.626 78.326 14.626H58.007C57.331 11.764 54.776 9.62598 51.728 9.62598C48.68 9.62598 46.124 11.764 45.449 14.626H25.073C24.423 14.626 23.875 15.041 23.667 15.619C23.502 15.759 23.357 15.925 23.264 16.13L9.554 45.314C9.554 45.314 9.25 45.828 9.25 46.372C9.25 55.679 16.428 63.25 25.25 63.25C34.072 63.25 41.25 55.679 41.25 46.372C41.25 45.891 41.203 45.75 40.825 45.036L26.742 17.626H45.448C46.007 19.993 47.852 21.858 50.199 22.434V78.626H35.92C35.091 78.626 34.42 79.297 34.42 80.126V87.126C34.42 87.955 35.091 88.626 35.92 88.626H67.664C68.493 88.626 69.164 87.955 69.164 87.126V80.126C69.164 79.297 68.493 78.626 67.664 78.626H53.2V22.449C55.574 21.889 57.445 20.012 58.008 17.626H75.906L62.153 44.427C61.775 45.141 61.728 45.282 61.728 45.763C61.728 55.07 68.906 62.641 77.728 62.641C86.55 62.641 93.728 55.07 93.728 45.763C93.728 45.219 93.424 44.705 93.424 44.705ZM25.25 60.249C18.557 60.249 13.028 54.82 12.325 47.871H38.175C37.472 54.821 31.943 60.249 25.25 60.249ZM37.391 44.872L12.907 45.188L24.694 20.237L37.391 44.872ZM66.164 81.625V85.625H37.42V81.625H66.164ZM55.159 16.414C55.011 18.207 53.538 19.625 51.728 19.625C49.82 19.625 48.268 18.055 48.268 16.125C48.268 14.195 49.82 12.625 51.728 12.625C53.538 12.625 55.011 14.043 55.159 15.836C55.141 15.93 55.13 16.026 55.13 16.125C55.13 16.224 55.141 16.321 55.159 16.414ZM78.285 19.628L90.072 44.579L65.588 44.263L78.285 19.628ZM77.728 59.64C71.035 59.64 65.506 54.212 64.803 47.262H90.653C89.95 54.211 84.421 59.64 77.728 59.64Z" fill="white"/>
</svg>
